<?xml version="1.0" standalone="no"?>
<!DOCTYPE svg PUBLIC "-//W3C//DTD SVG 20010904//EN"
 "http://www.w3.org/TR/2001/REC-SVG-20010904/DTD/svg10.dtd">
<svg version="1.0" xmlns="http://www.w3.org/2000/svg"
 width="96.000000pt" height="96.000000pt" viewBox="0 0 96.000000 96.000000"
 preserveAspectRatio="xMidYMid meet">
<metadata>
Created by potrace 1.11, written by Peter Selinger 2001-2013
</metadata>
<g transform="translate(0.000000,96.000000) scale(0.100000,-0.100000)"
fill="#000000" stroke="none">
<path d="M419 854 c-18 -22 -20 -41 -3 -55 25 -20 15 -34 -43 -56 -60 -23 -73
-22 -73 6 0 22 -19 41 -43 41 -25 0 -87 -62 -87 -87 0 -25 19 -43 46 -43 25 0
25 -4 -2 -82 -18 -53 -20 -54 -60 -33 -41 21 -64 -2 -64 -64 0 -70 24 -91 72
-63 15 9 29 14 30 11 14 -19 46 -114 42 -120 -3 -5 -13 -9 -23 -9 -22 0 -41
-19 -41 -43 0 -25 62 -87 87 -87 24 0 43 19 43 41 0 27 15 31 52 15 18 -8 46
-19 62 -25 26 -11 27 -13 14 -29 -41 -48 -19 -82 54 -82 60 0 97 42 62 71 -25
20 -15 34 43 56 60 23 73 22 73 -6 0 -22 19 -41 43 -41 25 0 87 63 87 88 0 22
-16 38 -45 44 -23 4 -23 14 1 81 18 51 23 54 57 32 20 -13 25 -13 45 1 18 12
22 25 22 64 0 39 -4 52 -22 64 -20 14 -25 14 -45 1 -34 -22 -39 -19 -57 33
-24 66 -24 76 -1 80 55 11 59 50 11 98 -48 48 -87 44 -98 -11 -2 -11 -10 -19
-18 -18 -29 4 -110 36 -110 43 0 4 7 20 15 36 13 25 13 30 -2 46 -21 24 -105
25 -124 2z m101 -29 c0 -8 -4 -15 -9 -15 -17 0 -21 -33 -7 -54 7 -12 35 -29
62 -38 65 -22 129 -87 152 -151 9 -27 26 -56 38 -63 21 -14 54 -10 54 7 0 5 7
9 15 9 11 0 15 -11 15 -40 0 -40 -21 -57 -33 -25 -13 33 -87 -13 -87 -53 0
-25 -59 -105 -94 -128 -17 -11 -52 -29 -78 -38 -29 -11 -48 -26 -51 -38 -6
-23 1 -48 14 -48 5 0 9 -7 9 -15 0 -11 -11 -15 -40 -15 -29 0 -40 4 -40 15 0
8 4 15 9 15 5 0 12 7 15 16 10 26 -20 62 -62 74 -74 19 -154 104 -168 176 -4
20 -14 36 -30 43 -25 11 -54 6 -54 -10 0 -5 -7 -9 -15 -9 -11 0 -15 11 -15 40
0 40 21 57 33 25 7 -16 45 -12 62 7 7 7 19 34 29 59 23 63 85 122 156 149 39
15 60 28 63 42 6 23 -1 48 -14 48 -5 0 -9 7 -9 15 0 11 11 15 40 15 29 0 40
-4 40 -15z m-252 -83 c-2 -11 3 -26 10 -34 10 -13 9 -18 -3 -28 -12 -10 -16
-9 -21 4 -4 11 -13 14 -30 10 -31 -8 -30 7 2 40 31 31 47 33 42 8z m465 -7
c32 -30 35 -49 7 -42 -11 3 -27 -1 -34 -9 -12 -11 -16 -11 -25 0 -8 10 -8 16
3 25 8 6 12 21 9 31 -7 27 7 25 40 -5z m-455 -483 c-7 -8 -12 -23 -10 -34 4
-25 -8 -23 -41 7 -34 32 -34 45 0 43 14 -2 28 3 31 10 3 10 7 10 18 1 12 -9
12 -15 2 -27z m464 16 c26 5 22 -13 -9 -43 -35 -31 -47 -32 -39 -1 4 17 1 26
-10 30 -13 5 -14 9 -4 21 10 12 15 13 28 3 8 -7 23 -12 34 -10z"/>
<path d="M372 660 c-31 -30 -37 -63 -16 -99 32 -54 107 -51 133 6 17 37 13 58
-15 87 -32 31 -72 34 -102 6z m83 -34 c31 -46 -25 -97 -66 -60 -25 23 -24 49
3 68 31 22 45 20 63 -8z"/>
<path d="M394 615 c-9 -23 3 -45 25 -45 10 0 21 7 25 15 8 23 -4 45 -25 45
-11 0 -22 -7 -25 -15z"/>
<path d="M558 545 c-55 -30 -42 -124 20 -141 30 -8 76 12 92 40 18 35 4 83
-30 101 -36 18 -48 18 -82 0z m78 -40 c20 -30 13 -51 -21 -67 -21 -9 -28 -8
-45 7 -24 22 -25 34 -4 63 20 29 50 28 70 -3z"/>
<path d="M575 489 c-10 -30 16 -47 44 -30 19 12 4 51 -19 51 -10 0 -22 -10
-25 -21z"/>
<path d="M367 433 c-56 -64 -2 -158 76 -130 84 29 65 147 -23 147 -22 0 -43
-7 -53 -17z m87 -29 c9 -8 16 -22 16 -29 0 -44 -73 -61 -91 -21 -23 50 36 90
75 50z"/>
<path d="M400 395 c-18 -21 -4 -47 22 -43 29 4 35 34 10 47 -15 8 -23 7 -32
-4z"/>
</g>
</svg>
